<svg id="Group_4" data-name="Group 4" xmlns="http://www.w3.org/2000/svg" viewBox="780 61 405 131.61">
  <defs>
    <style>
      .cls-1 {
        fill: #ef8829;
      }

      .cls-2 {
        fill: #84bd93;
      }

      .cls-3 {
        fill: #ce593f;
      }

      .cls-4 {
        fill: #c4813f;
      }

      .cls-5 {
        fill: #fdd44b;
      }

      .cls-6, .cls-7 {
        fill: #3f2d20;
      }

      .cls-7 {
        font-size: 60px;
        font-family: HelveticaNeue-CondensedBlack, Helvetica Neue;
        font-weight: 800;
      }
    </style>
  </defs>
  <g id="Group_3" data-name="Group 3" transform="translate(-37 -110)">
    <g id="hamburger" transform="translate(817 171)">
      <path id="Path_1" data-name="Path 1" class="cls-1" d="M69.055,190.318c-2.45-1.826-4.385-3.268-8.537-3.268s-6.087,1.442-8.537,3.268a27.648,27.648,0,0,1-4.408,2.833,7.731,7.731,0,0,0,1.02.075H73.61A27.175,27.175,0,0,1,69.055,190.318Z" transform="translate(-25.136 -111.023)"/>
      <path id="Path_2" data-name="Path 2" class="cls-1" d="M159.256,190.318c-2.45-1.826-4.385-3.268-8.536-3.268s-6.086,1.442-8.535,3.268a27.181,27.181,0,0,1-4.554,2.908H163.81A27.16,27.16,0,0,1,159.256,190.318Z" transform="translate(-72.717 -111.023)"/>
      <path id="Path_3" data-name="Path 3" class="cls-1" d="M241.079,187.05c-4.151,0-6.086,1.442-8.535,3.268a27.181,27.181,0,0,1-4.554,2.908H253a7.761,7.761,0,0,0,1.016-.074,27.647,27.647,0,0,1-4.4-2.834C247.165,188.492,245.23,187.05,241.079,187.05Z" transform="translate(-120.459 -111.023)"/>
      <path id="Path_4" data-name="Path 4" class="cls-2" d="M157.868,166.777H55.875a7.864,7.864,0,0,0-7.7,6.873c-.079.058-.159.166-.237.224,2.794-2.082,6.271-4.65,12.774-4.65s9.981,2.6,12.775,4.685c2.45,1.826,4.385,3.274,8.537,3.274s6.086-1.439,8.535-3.265c2.794-2.082,6.27-4.672,12.773-4.672s9.98,2.592,12.774,4.674c2.449,1.826,4.384,3.269,8.535,3.269s6.086-1.442,8.535-3.268c2.794-2.082,6.27-4.674,12.774-4.674s9.98,2.592,12.773,4.674c2.026,1.51,3.7,2.754,6.567,3.141a8.378,8.378,0,0,0,.355-2.417A7.865,7.865,0,0,0,157.868,166.777Z" transform="translate(-25.326 -100.312)"/>
      <g id="Group_1" data-name="Group 1" transform="translate(13.813 89.417)">
        <path id="Path_5" data-name="Path 5" class="cls-3" d="M292.964,216.151c.147.058.288.126.429.194C293.251,216.277,293.111,216.209,292.964,216.151Z" transform="translate(-168.601 -215.816)"/>
        <path id="Path_6" data-name="Path 6" class="cls-3" d="M295.166,217.266c.142.089.282.181.417.28C295.448,217.446,295.309,217.355,295.166,217.266Z" transform="translate(-169.764 -216.405)"/>
        <path id="Path_7" data-name="Path 7" class="cls-3" d="M298.782,220.533c.108.14.227.272.324.42C299.008,220.8,298.891,220.673,298.782,220.533Z" transform="translate(-171.675 -218.131)"/>
        <path id="Path_8" data-name="Path 8" class="cls-3" d="M300.355,223.055a6.408,6.408,0,0,1,.286.732A6.385,6.385,0,0,0,300.355,223.055Z" transform="translate(-172.506 -219.463)"/>
        <path id="Path_9" data-name="Path 9" class="cls-3" d="M290.549,215.44c.132.025.257.068.386.1C290.806,215.508,290.681,215.465,290.549,215.44Z" transform="translate(-167.325 -215.44)"/>
        <path id="Path_10" data-name="Path 10" class="cls-3" d="M297.5,219.094c-.121-.127-.251-.241-.382-.358C297.245,218.853,297.377,218.967,297.5,219.094Z" transform="translate(-170.794 -217.181)"/>
        <path id="Path_11" data-name="Path 11" class="cls-3" d="M29.389,231.906c-.033-.129-.076-.255-.1-.387C29.313,231.652,29.356,231.776,29.389,231.906Z" transform="translate(-29.287 -223.935)"/>
        <path id="Path_12" data-name="Path 12" class="cls-3" d="M37.621,241.6a6.442,6.442,0,0,1-.749-.295A6.475,6.475,0,0,0,37.621,241.6Z" transform="translate(-33.295 -229.107)"/>
        <path id="Path_13" data-name="Path 13" class="cls-3" d="M34.8,240.073c-.15-.1-.282-.216-.423-.326C34.517,239.857,34.65,239.975,34.8,240.073Z" transform="translate(-31.976 -228.283)"/>
        <path id="Path_14" data-name="Path 14" class="cls-3" d="M162.728,224.309c-.5-.123-1.015-.532-1.55-.532H45.539a6.793,6.793,0,0,0-6.49,6.825,8.071,8.071,0,0,0,.2,1.737,6.626,6.626,0,0,0,1.567.4h115.64a6.66,6.66,0,0,0,6.49-6.677A8.07,8.07,0,0,0,162.728,224.309Z" transform="translate(-34.445 -219.845)"/>
        <path id="Path_15" data-name="Path 15" class="cls-3" d="M32.583,238.082c.117.131.231.262.358.383C32.815,238.345,32.7,238.212,32.583,238.082Z" transform="translate(-31.028 -227.403)"/>
        <path id="Path_16" data-name="Path 16" class="cls-3" d="M30.194,234.363c-.068-.142-.137-.283-.2-.431C30.057,234.08,30.126,234.22,30.194,234.363Z" transform="translate(-29.663 -225.21)"/>
        <path id="Path_17" data-name="Path 17" class="cls-3" d="M31.393,236.552c-.1-.136-.192-.276-.281-.419C31.2,236.277,31.293,236.416,31.393,236.552Z" transform="translate(-30.251 -226.373)"/>
      </g>
      <path id="Path_18" data-name="Path 18" class="cls-4" d="M156.762,257.777H38.1c-7.474,0-8.034,1.812-8.034,4.983,0,5.462,3.6,9.639,8.034,9.639h118.66c4.429,0,8.034-4.176,8.034-9.639C164.8,259.589,164.236,257.777,156.762,257.777Z" transform="translate(-15.886 -148.392)"/>
      <g id="Group_2" data-name="Group 2" transform="translate(7.145 13.805)">
        <path id="Path_19" data-name="Path 19" class="cls-5" d="M21.737,144.7c.067.07.13.144.2.212C21.866,144.848,21.8,144.774,21.737,144.7Z" transform="translate(-18.63 -102.455)"/>
        <path id="Path_20" data-name="Path 20" class="cls-5" d="M277.745,70.461c.235.154.461.311.692.467C278.206,70.772,277.98,70.615,277.745,70.461Z" transform="translate(-153.892 -63.228)"/>
        <path id="Path_21" data-name="Path 21" class="cls-5" d="M15.542,132.916q-.04-.18-.075-.361Q15.5,132.736,15.542,132.916Z" transform="translate(-15.317 -96.036)"/>
        <path id="Path_22" data-name="Path 22" class="cls-5" d="M15.189,130.669c-.014-.109-.03-.218-.04-.329C15.159,130.451,15.176,130.559,15.189,130.669Z" transform="translate(-15.149 -94.865)"/>
        <path id="Path_23" data-name="Path 23" class="cls-5" d="M295.557,84.759c-.176-.179-.342-.36-.523-.538C295.215,84.4,295.381,84.58,295.557,84.759Z" transform="translate(-163.026 -70.498)"/>
        <path id="Path_24" data-name="Path 24" class="cls-5" d="M298.247,87.557c.22.24.429.482.64.724C298.675,88.039,298.467,87.8,298.247,87.557Z" transform="translate(-164.724 -72.261)"/>
        <path id="Path_25" data-name="Path 25" class="cls-5" d="M286.268,76.574c.255.2.51.4.758.6C286.778,76.974,286.523,76.774,286.268,76.574Z" transform="translate(-158.395 -66.458)"/>
        <path id="Path_26" data-name="Path 26" class="cls-5" d="M16.09,135.086c-.035-.107-.064-.217-.1-.326C16.027,134.869,16.056,134.978,16.09,135.086Z" transform="translate(-15.596 -97.201)"/>
        <path id="Path_27" data-name="Path 27" class="cls-5" d="M290.265,79.863c.221.191.448.38.664.573C290.713,80.243,290.486,80.054,290.265,79.863Z" transform="translate(-160.507 -68.196)"/>
        <path id="Path_28" data-name="Path 28" class="cls-5" d="M282.118,73.461c.262.188.52.377.776.567C282.637,73.838,282.38,73.649,282.118,73.461Z" transform="translate(-156.202 -64.813)"/>
        <path id="Path_29" data-name="Path 29" class="cls-5" d="M25.69,148.031c-.123-.079-.245-.159-.364-.243C25.445,147.872,25.567,147.952,25.69,148.031Z" transform="translate(-20.526 -104.084)"/>
        <path id="Path_30" data-name="Path 30" class="cls-5" d="M16.889,137.333c-.017-.041-.031-.085-.048-.126C16.858,137.249,16.872,137.292,16.889,137.333Z" transform="translate(-16.043 -98.494)"/>
        <path id="Path_31" data-name="Path 31" class="cls-5" d="M29.479,150.121c-.118-.049-.231-.107-.347-.16C29.248,150.014,29.361,150.072,29.479,150.121Z" transform="translate(-22.537 -105.232)"/>
        <path id="Path_32" data-name="Path 32" class="cls-4" d="M157.65,71.68A61.022,61.022,0,0,0,151.8,67.7c-13.52-8.112-31.569-12.579-50.823-12.579S63.673,59.593,50.154,67.7C37.2,75.476,30.068,85.615,30.068,96.253a9.614,9.614,0,0,0,.76,3.752,11.265,11.265,0,0,0,3.494.234H153.45a11.087,11.087,0,0,0,11.345-11.024C164.8,82.963,162.313,77.209,157.65,71.68ZM56.185,86.091a3.544,3.544,0,1,1,1.04-2.511A3.574,3.574,0,0,1,56.185,86.091ZM77.34,68.221a3.543,3.543,0,1,1,1.04-2.51A3.565,3.565,0,0,1,77.34,68.221ZM96.4,86.091A3.557,3.557,0,1,1,97.43,83.58,3.595,3.595,0,0,1,96.4,86.091Zm19.046-17.869a3.543,3.543,0,1,1,1.04-2.51A3.564,3.564,0,0,1,115.441,68.221ZM136.6,86.091a3.544,3.544,0,1,1,1.04-2.511A3.565,3.565,0,0,1,136.6,86.091Z" transform="translate(-23.031 -55.126)"/>
        <path id="Path_33" data-name="Path 33" class="cls-5" d="M27.513,149.146c-.13-.068-.257-.142-.384-.215C27.256,149,27.383,149.078,27.513,149.146Z" transform="translate(-21.479 -104.688)"/>
        <path id="Path_34" data-name="Path 34" class="cls-5" d="M18.029,139.669c-.057-.1-.116-.195-.169-.295C17.913,139.474,17.973,139.571,18.029,139.669Z" transform="translate(-16.581 -99.638)"/>
        <path id="Path_35" data-name="Path 35" class="cls-5" d="M19.171,141.527c-.075-.107-.15-.215-.221-.324C19.022,141.312,19.1,141.42,19.171,141.527Z" transform="translate(-17.157 -100.605)"/>
        <path id="Path_36" data-name="Path 36" class="cls-5" d="M23.957,146.751c-.1-.08-.208-.158-.307-.241C23.75,146.594,23.854,146.671,23.957,146.751Z" transform="translate(-19.641 -103.409)"/>
        <path id="Path_37" data-name="Path 37" class="cls-5" d="M20.455,143.253c-.083-.1-.163-.2-.243-.3C20.292,143.052,20.371,143.154,20.455,143.253Z" transform="translate(-17.824 -101.528)"/>
      </g>
      <path id="Path_38" data-name="Path 38" class="cls-6" d="M76.158,107.938a3.551,3.551,0,1,0,2.505,1.04A3.566,3.566,0,0,0,76.158,107.938Z" transform="translate(-38.365 -69.224)"/>
      <path id="Path_39" data-name="Path 39" class="cls-6" d="M161.4,107.938a3.543,3.543,0,1,0,2.511,1.04A3.566,3.566,0,0,0,161.4,107.938Z" transform="translate(-83.404 -69.224)"/>
      <path id="Path_40" data-name="Path 40" class="cls-6" d="M246.646,107.938a3.551,3.551,0,1,0,2.505,1.04A3.568,3.568,0,0,0,246.646,107.938Z" transform="translate(-128.443 -69.224)"/>
      <path id="Path_41" data-name="Path 41" class="cls-6" d="M121.01,70.052a3.551,3.551,0,1,0,2.505,1.04A3.556,3.556,0,0,0,121.01,70.052Z" transform="translate(-62.063 -49.207)"/>
      <path id="Path_42" data-name="Path 42" class="cls-6" d="M201.794,70.052a3.551,3.551,0,1,0,2.505,1.04A3.566,3.566,0,0,0,201.794,70.052Z" transform="translate(-104.745 -49.207)"/>
      <path id="Path_43" data-name="Path 43" class="cls-6" d="M147.351,128.793a13.549,13.549,0,0,0-3.926-18.4,14.819,14.819,0,0,0,.89-19.169A18.463,18.463,0,0,0,156,74.074c0-13.227-8.356-25.525-23.529-34.629C117.866,30.682,98.521,25.856,78,25.856s-39.866,4.826-54.472,13.59C8.356,48.548,0,60.846,0,74.074A18.463,18.463,0,0,0,11.685,91.225a14.815,14.815,0,0,0,.892,19.167,13.549,13.549,0,0,0-3.929,18.4C4.414,129.886,0,132.785,0,140.469c0,9.373,6.785,17,15.124,17H140.875c8.34,0,15.124-7.625,15.124-17C156,132.784,151.585,129.886,147.351,128.793Zm-6.476,21.583H15.124c-4.43,0-8.034-4.444-8.034-9.906,0-3.171.559-5.25,8.034-5.25H140.875c7.474,0,8.034,2.079,8.034,5.25C148.909,145.931,145.3,150.375,140.875,150.375Zm-8.333-42.316H107.531a27.263,27.263,0,0,0,4.554-2.908c2.449-1.826,4.384-3.268,8.535-3.268s6.086,1.442,8.535,3.268a27.66,27.66,0,0,0,4.4,2.834A7.774,7.774,0,0,1,132.542,108.059Zm-67.628,0a27.244,27.244,0,0,0,4.554-2.908c2.449-1.826,4.384-3.268,8.535-3.268s6.086,1.442,8.536,3.268a27.163,27.163,0,0,0,4.554,2.908Zm-41.456,0a7.814,7.814,0,0,1-1.02-.075,27.647,27.647,0,0,0,4.408-2.833c2.45-1.826,4.385-3.268,8.537-3.268s6.087,1.442,8.537,3.268a27.187,27.187,0,0,0,4.554,2.908H23.458Zm116.5-5.452c-2.865-.387-4.541-1.631-6.567-3.141-2.794-2.082-6.27-4.674-12.773-4.674s-9.98,2.591-12.773,4.674c-2.45,1.826-4.384,3.268-8.535,3.268s-6.086-1.442-8.535-3.268c-2.794-2.082-6.27-4.674-12.774-4.674s-9.98,2.591-12.773,4.674c-2.45,1.826-4.384,3.268-8.535,3.268s-6.087-1.442-8.537-3.268c-2.794-2.082-6.271-4.674-12.775-4.674S25.4,97.384,22.608,99.465c-2.026,1.51-3.7,2.755-6.57,3.142a7.773,7.773,0,0,1,7.42-10.1H132.542a7.775,7.775,0,0,1,7.42,10.1Zm-2.4-17.187H18.436A11.359,11.359,0,0,1,7.091,74.073c0-10.638,7.133-20.777,20.086-28.548C40.7,37.414,58.745,32.946,78,32.946s37.3,4.467,50.823,12.579c12.953,7.771,20.086,17.91,20.086,28.548A11.359,11.359,0,0,1,137.564,85.42ZM20.18,115.15H135.819a6.489,6.489,0,1,1,0,12.979H20.18a6.489,6.489,0,1,1,0-12.979Z" transform="translate(0 -25.856)"/>
    </g>
  </g>
  <text id="EAT_DA_BURGER" data-name="EAT DA
BURGER" class="cls-7" transform="translate(984 119)"><tspan x="0" y="0">EAT DA</tspan><tspan x="0" y="59">BURGER</tspan></text>
</svg>
